<?xml version="1.0" encoding="UTF-8" standalone="no"?>
<!-- Created with Inkscape (http://www.inkscape.org/) -->

<svg
   width="1242"
   height="2208"
   viewBox="0 0 328.61249 584.20002"
   version="1.1"
   id="svg5920"
   inkscape:version="1.1.1 (3bf5ae0d25, 2021-09-20)"
   sodipodi:docname="landing page.svg"
   xmlns:inkscape="http://www.inkscape.org/namespaces/inkscape"
   xmlns:sodipodi="http://sodipodi.sourceforge.net/DTD/sodipodi-0.dtd"
   xmlns="http://www.w3.org/2000/svg"
   xmlns:svg="http://www.w3.org/2000/svg">
  <sodipodi:namedview
     id="namedview5922"
     pagecolor="#ffffff"
     bordercolor="#111111"
     borderopacity="1"
     inkscape:pageshadow="0"
     inkscape:pageopacity="0"
     inkscape:pagecheckerboard="1"
     inkscape:document-units="mm"
     showgrid="false"
     inkscape:zoom="0.3"
     inkscape:cx="1113.3333"
     inkscape:cy="1406.6667"
     inkscape:window-width="2160"
     inkscape:window-height="1334"
     inkscape:window-x="-11"
     inkscape:window-y="-11"
     inkscape:window-maximized="1"
     inkscape:current-layer="layer1"
     units="px"
     showguides="true"
     inkscape:guide-bbox="true">
    <sodipodi:guide
       position="164.30625,497.04146"
       orientation="-1,0"
       id="guide826"
       inkscape:label=""
       inkscape:locked="false"
       inkscape:color="rgb(0,0,255)" />
    <sodipodi:guide
       position="292.1,292.1"
       orientation="0,1"
       id="guide1940"
       inkscape:label=""
       inkscape:locked="false"
       inkscape:color="rgb(0,0,255)" />
    <sodipodi:guide
       position="-18.109408,172.50833"
       orientation="0,1"
       id="guide1942"
       inkscape:label=""
       inkscape:locked="false"
       inkscape:color="rgb(0,0,255)" />
    <sodipodi:guide
       position="36,412.36135"
       orientation="-1,0"
       id="guide1944"
       inkscape:label=""
       inkscape:locked="false"
       inkscape:color="rgb(0,0,255)" />
    <sodipodi:guide
       position="292.6125,-1.2031857e-13"
       orientation="-1,0"
       id="guide1946"
       inkscape:label=""
       inkscape:locked="false"
       inkscape:color="rgb(0,0,255)" />
    <sodipodi:guide
       position="68.07656,616.91379"
       orientation="-1,0"
       id="guide38462"
       inkscape:label=""
       inkscape:locked="false"
       inkscape:color="rgb(0,0,255)" />
    <sodipodi:guide
       position="260.53594,566.67479"
       orientation="-1,0"
       id="guide38464"
       inkscape:label=""
       inkscape:locked="false"
       inkscape:color="rgb(0,0,255)" />
    <sodipodi:guide
       position="100.15313,525.54355"
       orientation="-1,0"
       id="guide39294"
       inkscape:label=""
       inkscape:locked="false"
       inkscape:color="rgb(0,0,255)" />
    <sodipodi:guide
       position="228.45938,598.24453"
       orientation="-1,0"
       id="guide39296"
       inkscape:label=""
       inkscape:locked="false"
       inkscape:color="rgb(0,0,255)" />
    <sodipodi:guide
       position="41.892361,525.99167"
       orientation="0,1"
       id="guide10196"
       inkscape:label=""
       inkscape:locked="false"
       inkscape:color="rgb(0,0,255)" />
    <sodipodi:guide
       position="171.34204,0"
       orientation="0,1"
       id="guide881"
       inkscape:label=""
       inkscape:locked="false"
       inkscape:color="rgb(0,0,255)" />
  </sodipodi:namedview>
  <defs
     id="defs5917">
    <rect
       x="462.12215"
       y="977.3259"
       width="321.61204"
       height="227.93863"
       id="rect56061" />
    <rect
       x="378.53125"
       y="1618.3984"
       width="484.93749"
       height="241.9161"
       id="rect47575" />
    <rect
       x="257.29724"
       y="1561.2235"
       width="727.40556"
       height="165.48974"
       id="rect42235" />
    <rect
       x="461.15796"
       y="1778.2334"
       width="314.56237"
       height="154.71919"
       id="rect6208" />
    <rect
       x="136.06299"
       y="177.97948"
       width="969.87401"
       height="165.48969"
       id="rect4217" />
    <rect
       x="249.79576"
       y="117.09176"
       width="130.83463"
       height="44.929159"
       id="rect9186" />
    <rect
       x="461.15796"
       y="1778.2334"
       width="314.56238"
       height="154.71919"
       id="rect6208-4" />
  </defs>
  <g
     inkscape:label="Layer 1"
     inkscape:groupmode="layer"
     id="layer1">
    <path
       style="fill:#474a51;fill-opacity:1;stroke-width:0.727944"
       d="M 0,292.09999 V 0 H 164.30623 328.6125 V 292.09999 584.2 H 164.30623 0 Z"
       id="path2668" />
    <circle
       style="fill:#b3b3b3;fill-opacity:1;stroke:none;stroke-width:0.442344;stroke-linejoin:round"
       id="path39206"
       cx="164.30624"
       cy="292.10001"
       r="64.009941" />
    <path
       id="rect44219"
       style="fill:#b79906;fill-opacity:1;stroke:none;stroke-width:0.538448;stroke-linejoin:round"
       d="m 100.15313,411.69167 v 0.002 a 32.005,26.713378 0 0 0 -0.0713,-8.4e-4 32.005,26.713378 0 0 0 -32.004769,26.71319 32.005,26.713378 0 0 0 32.004769,26.71319 32.005,26.713378 0 0 0 0.0713,-0.003 v 0.003 h 128.30638 v -0.002 a 32.005,26.713378 0 0 0 0.0382,0.002 32.005,26.713378 0 0 0 32.00528,-26.71319 32.005,26.713378 0 0 0 -32.00528,-26.71319 32.005,26.713378 0 0 0 -0.0382,0.002 v -0.002 z" />
    <text
       xml:space="preserve"
       transform="matrix(0.38966555,0,0,0.76014548,-49.764851,-810.55338)"
       id="text47573"
       style="font-style:normal;font-weight:normal;font-size:40px;line-height:1.25;font-family:sans-serif;white-space:pre;shape-inside:url(#rect47575);fill:#000000;fill-opacity:1;stroke:none"><tspan
         x="378.53125"
         y="1654.8917"
         id="tspan1105">Let's get Rich $$</tspan></text>
    <rect
       style="fill:#b79906;fill-opacity:1;stroke:none;stroke-width:0.663795;stroke-linejoin:round"
       id="rect10220"
       width="328.61249"
       height="58.208332"
       x="0"
       y="0" />
    <rect
       style="fill:#b79906;fill-opacity:1;stroke:none;stroke-width:0.660025;stroke-linejoin:round"
       id="rect10220-4"
       width="328.61578"
       height="57.548309"
       x="-0.0032767633"
       y="526.65173"
       inkscape:export-filename="D:\IPCA\segundo ano\Web design\exercicio4_mockUp\png\landing_page.png"
       inkscape:export-xdpi="96"
       inkscape:export-ydpi="96" />
    <g
       id="g8291"
       inkscape:export-filename="D:\IPCA\2o Ano\Projeto final\Crypto-Challenge---Documentacao\Icons\g8291.png"
       inkscape:export-xdpi="96"
       inkscape:export-ydpi="96"
       transform="translate(56.49401,155.78568)">
      <path
         id="path850"
         style="fill:#b79906;fill-opacity:1;stroke:#000000;stroke-width:3.77953;stroke-miterlimit:4;stroke-dasharray:none"
         d="M 406.57812,359.83008 A 156.83205,156.83205 0 0 0 249.74609,516.66211 156.83205,156.83205 0 0 0 406.57812,673.49414 156.83205,156.83205 0 0 0 518.53516,626.26172 L 490.52539,598.25 a 117.08098,117.08098 0 0 1 -83.94727,35.49414 117.08098,117.08098 0 0 1 -117.08007,-117.08203 117.08098,117.08098 0 0 1 117.08007,-117.08008 117.08098,117.08098 0 0 1 82.49415,34.02735 l 28.00585,-28.00391 a 156.83205,156.83205 0 0 0 -110.5,-45.77539 z m 0,66.18164 a 90.650615,90.650615 0 0 0 -90.65039,90.65039 90.650615,90.650615 0 0 0 90.65039,90.65039 90.650615,90.650615 0 0 0 65.16211,-27.84766 l -23.92187,-23.92187 a 56.683469,56.683472 0 0 1 -41.24024,17.80273 56.683469,56.683472 0 0 1 -56.68359,-56.68359 56.683469,56.683472 0 0 1 56.68359,-56.68359 56.683469,56.683472 0 0 1 39.78711,16.33789 l 23.91602,-23.91602 a 90.650615,90.650615 0 0 0 -63.70313,-26.38867 z"
         transform="scale(0.26458333)" />
      <path
         style="fill:none;stroke:#000000;stroke-width:0.264583px;stroke-linecap:butt;stroke-linejoin:miter;stroke-opacity:1"
         d="m 107.81224,136.31432 c 0.0719,0.19244 0.0232,0.64923 0.21569,0.57733 0.19245,-0.0719 -0.14379,-0.38489 -0.21569,-0.57733"
         id="path2718" />
      <path
         style="fill:none;stroke:#000000;stroke-width:1;stroke-linecap:butt;stroke-linejoin:miter;stroke-miterlimit:4;stroke-dasharray:none;stroke-opacity:1"
         d="M 82.982487,103.58098 V 85.336599"
         id="path3328" />
      <path
         style="fill:none;stroke:#000000;stroke-width:0.264583px;stroke-linecap:butt;stroke-linejoin:miter;stroke-opacity:1"
         d="m 82.982487,170.22615 v 14.67363"
         id="path6025" />
      <path
         style="fill:none;stroke:#000000;stroke-width:0.264583px;stroke-linecap:butt;stroke-linejoin:miter;stroke-opacity:1"
         d="m 82.982487,184.89978 h 9.416452 l 10e-7,-9.48049"
         id="path6027" />
      <path
         style="fill:#b79906;fill-opacity:1;stroke:#000000;stroke-width:3.77953;stroke-miterlimit:4;stroke-dasharray:none"
         d="m 314.26981,672.1415 v -26.12175 l 3.82386,2.55722 c 8.77702,5.86967 17.76536,10.69607 27.50042,14.7667 l 2.90991,1.21675 v 16.85141 16.85142 h -17.1171 -17.11709 z"
         id="path6070"
         transform="scale(0.26458333)" />
      <path
         style="fill:none;stroke:#000000;stroke-width:0.00072174;stroke-linecap:butt;stroke-linejoin:miter;stroke-miterlimit:4;stroke-dasharray:none;stroke-opacity:1"
         d="m 118.1008,176.92039 v 8.48177"
         id="path6938" />
      <path
         style="fill:none;stroke:#000000;stroke-width:0.00070004;stroke-linecap:butt;stroke-linejoin:miter;stroke-miterlimit:4;stroke-dasharray:none;stroke-opacity:1"
         d="m 118.1008,184.89978 h 9.37586 v -11.71803"
         id="path6940" />
      <path
         style="fill:none;stroke:#000000;stroke-width:1;stroke-linecap:butt;stroke-linejoin:miter;stroke-miterlimit:4;stroke-dasharray:none;stroke-opacity:1"
         d="m 118.1008,96.519319 v -11.18272 l 9.37586,2e-6 v 14.931889"
         id="path7055" />
      <path
         style="fill:#b79906;fill-opacity:1;stroke:#000000;stroke-width:3.77953;stroke-miterlimit:4;stroke-dasharray:none"
         d="m 448.88059,683.36103 0.0223,-13.3533 8.47531,-2.70718 c 4.66142,-1.48895 11.43269,-4.12447 15.04727,-5.85671 3.61459,-1.73224 6.74845,-3.14953 6.96415,-3.14953 0.2157,0 0.39218,8.6445 0.39218,19.21001 v 19.21001 h -15.46172 -15.46171 z"
         id="path7133"
         transform="scale(0.26458333)" />
      <path
         style="fill:none;stroke:#000000;stroke-width:1;stroke-linecap:butt;stroke-linejoin:miter;stroke-miterlimit:4;stroke-dasharray:none;stroke-opacity:1"
         d="M 92.398939,85.336599 V 98.062276"
         id="path7651" />
      <path
         style="fill:none;stroke:#000000;stroke-width:1.04524;stroke-linecap:butt;stroke-linejoin:miter;stroke-miterlimit:4;stroke-dasharray:none;stroke-opacity:1"
         d="M 92.88108,85.336599 H 82.488011"
         id="path7846" />
      <path
         style="fill:#b79906;fill-opacity:1;stroke:#000000;stroke-width:1.23375;stroke-miterlimit:4;stroke-dasharray:none"
         d="m 477.07706,374.3527 c -6.76925,-3.47378 -17.85531,-7.79661 -26.19599,-10.21471 l -2.36662,-0.68613 v -19.40874 -19.40875 h 15.66863 15.66863 v 25.46152 c 0,14.00384 -0.11017,25.4543 -0.24482,25.44547 -0.13466,-0.009 -1.27308,-0.54373 -2.52983,-1.18866 z"
         id="path8119"
         transform="scale(0.26458333)" />
      <path
         style="fill:#b79906;fill-opacity:1;stroke:#000000;stroke-width:1.23375;stroke-miterlimit:4;stroke-dasharray:none"
         d="m 315.65755,355.47509 v -30.84072 h 15.83184 15.83185 v 22.29181 22.29181 l -3.01948,1.26131 c -7.44917,3.1117 -17.23656,8.35093 -24.48223,13.10546 l -4.16198,2.73104 z"
         id="path8158"
         transform="scale(0.26458333)" />
    </g>
  </g>
</svg>
