<?xml version="1.0" encoding="UTF-8" standalone="no"?>
<!-- Created with Inkscape (http://www.inkscape.org/) -->

<svg
   width="1242"
   height="2208"
   viewBox="0 0 328.61249 584.20002"
   version="1.1"
   id="svg5"
   inkscape:version="1.1.1 (3bf5ae0d25, 2021-09-20)"
   sodipodi:docname="register_mobile.svg"
   inkscape:export-filename="D:\IPCA\segundo ano\Web design\exercicio4_mockUp\png\register_mobile.png"
   inkscape:export-xdpi="96"
   inkscape:export-ydpi="96"
   xmlns:inkscape="http://www.inkscape.org/namespaces/inkscape"
   xmlns:sodipodi="http://sodipodi.sourceforge.net/DTD/sodipodi-0.dtd"
   xmlns="http://www.w3.org/2000/svg"
   xmlns:svg="http://www.w3.org/2000/svg">
  <sodipodi:namedview
     id="namedview7"
     pagecolor="#ffffff"
     bordercolor="#999999"
     borderopacity="1"
     inkscape:pageshadow="0"
     inkscape:pageopacity="0"
     inkscape:pagecheckerboard="0"
     inkscape:document-units="mm"
     showgrid="false"
     units="px"
     showguides="true"
     inkscape:guide-bbox="true"
     inkscape:zoom="0.44429725"
     inkscape:cx="569.43859"
     inkscape:cy="1134.3757"
     inkscape:window-width="2160"
     inkscape:window-height="1334"
     inkscape:window-x="-11"
     inkscape:window-y="-11"
     inkscape:window-maximized="1"
     inkscape:current-layer="layer3">
    <sodipodi:guide
       position="164.30625,291.74381"
       orientation="-1,0"
       id="guide928"
       inkscape:label=""
       inkscape:locked="false"
       inkscape:color="rgb(0,0,255)" />
    <sodipodi:guide
       position="123.92211,-519.8"
       orientation="0,1"
       id="guide930"
       inkscape:label=""
       inkscape:locked="false"
       inkscape:color="rgb(0,0,255)" />
    <sodipodi:guide
       position="164.30624,-519.8"
       orientation="0,1"
       id="guide932"
       inkscape:label=""
       inkscape:locked="false"
       inkscape:color="rgb(0,0,255)" />
    <sodipodi:guide
       position="0,584.20002"
       orientation="1,0"
       id="guide1316" />
    <sodipodi:guide
       position="328.80666,584.20002"
       orientation="1,0"
       id="guide1318" />
    <sodipodi:guide
       position="-3.4544622,291.57083"
       orientation="0,-1"
       id="guide1320" />
    <sodipodi:guide
       position="36,617.24592"
       orientation="-1,0"
       id="guide1507"
       inkscape:label=""
       inkscape:locked="false"
       inkscape:color="rgb(0,0,255)" />
    <sodipodi:guide
       position="104.07656,617.24592"
       orientation="-1,0"
       id="guide1589"
       inkscape:label=""
       inkscape:locked="false"
       inkscape:color="rgb(0,0,255)" />
    <sodipodi:guide
       position="224.53594,618.89821"
       orientation="-1,0"
       id="guide1591"
       inkscape:label=""
       inkscape:locked="false"
       inkscape:color="rgb(0,0,255)" />
    <sodipodi:guide
       position="292.6125,661.03173"
       orientation="-1,0"
       id="guide1593"
       inkscape:label=""
       inkscape:locked="false"
       inkscape:color="rgb(0,0,255)" />
    <sodipodi:guide
       position="159.96409,368.77903"
       orientation="1,0"
       id="guide2126" />
    <sodipodi:guide
       position="168.43944,398.54291"
       orientation="1,0"
       id="guide2128" />
    <sodipodi:guide
       position="-239.90703,502.80299"
       orientation="0,-1"
       id="guide2314" />
  </sodipodi:namedview>
  <defs
     id="defs2" />
  <g
     inkscape:label="Layer 1"
     inkscape:groupmode="layer"
     id="layer1">
    <rect
       style="fill:#474a51;fill-opacity:1;stroke:#000000;stroke-width:1"
       id="rect846"
       width="328.80667"
       height="583.26007"
       x="0"
       y="0" />
    <rect
       style="fill:#f9f9f9;fill-opacity:1;stroke:#000000;stroke-width:0.69097"
       id="rect2009-9"
       width="91.887527"
       height="29.39604"
       x="68.076561"
       y="237.86795" />
    <rect
       style="fill:#f9f9f9;fill-opacity:1;stroke:#000000;stroke-width:0.69097"
       id="rect2009-9-3"
       width="91.887527"
       height="29.39604"
       x="168.64841"
       y="237.55699" />
    <g
       id="g2162"
       transform="matrix(1.952605,0,0,1.4947973,964.32977,-330.02268)">
      <text
         xml:space="preserve"
         style="font-style:normal;font-weight:normal;font-size:10.5833px;line-height:1.25;font-family:sans-serif;fill:#000000;fill-opacity:1;stroke:none;stroke-width:0.264583"
         x="-426.23361"
         y="343.41852"
         id="text34233"><tspan
           sodipodi:role="line"
           id="tspan34231"
           style="stroke-width:0.264583"
           x="-426.23361"
           y="343.41852">rypto</tspan></text>
      <text
         xml:space="preserve"
         style="font-style:normal;font-weight:normal;font-size:10.5833px;line-height:1.25;font-family:sans-serif;fill:#000000;fill-opacity:1;stroke:none;stroke-width:0.264583"
         x="-423.15784"
         y="359.09506"
         id="text35853"><tspan
           sodipodi:role="line"
           id="tspan35851"
           style="stroke-width:0.264583"
           x="-423.15784"
           y="359.09506">hallenge</tspan></text>
      <path
         id="path7641-2"
         style="fill:#9a7109;fill-opacity:0.86;stroke-width:0.272024;stroke-miterlimit:4;stroke-dasharray:none"
         d="m -436.38467,337.25298 a 7.25,7.3591607 64.697897 0 0 -3.55469,9.7 7.25,7.3591607 64.697897 0 0 9.75203,3.40934 7.25,7.3591607 64.697897 0 0 4.10215,-8.02279 l -2.15677,1.01959 a 5,5.0752833 64.697897 0 1 -2.907,4.96906 5,5.0752833 64.697897 0 1 -6.72564,-2.35131 5,5.0752833 64.697897 0 1 2.45155,-6.68974 5,5.0752833 64.697897 0 1 5.68757,0.9066 l 2.15725,-1.01983 a 7.25,7.3591607 64.697897 0 0 -8.80645,-1.92092 z" />
      <path
         id="path7641-2-9"
         style="fill:#9a7109;fill-opacity:0.86;stroke-width:0.271532;stroke-miterlimit:4;stroke-dasharray:none"
         d="m -426.95773,347.69699 a 7.3325425,7.25 36.161682 0 0 -10.13715,1.86862 7.3325425,7.25 36.161682 0 0 1.98453,10.12311 7.3325425,7.25 36.161682 0 0 8.97034,-0.54559 l -1.96467,-1.33793 a 5.0569259,5 36.161682 0 1 -5.74063,0.0228 5.0569259,5 36.161682 0 1 -1.36865,-6.98156 5.0569259,5 36.161682 0 1 6.99124,-1.28872 5.0569259,5 36.161682 0 1 2.08805,5.35447 l 1.96515,1.33816 a 7.3325425,7.25 36.161682 0 0 -2.78815,-8.55339 z" />
    </g>
    <rect
       style="fill:#f9f9f9;fill-opacity:1;stroke:#000000;stroke-width:1"
       id="rect2009"
       width="192.45938"
       height="29.39604"
       x="68.076561"
       y="278.9624" />
    <rect
       style="fill:#f9f9f9;fill-opacity:1;stroke:#000000;stroke-width:1"
       id="rect2009-8"
       width="192.45938"
       height="29.39604"
       x="68.076553"
       y="317.6572" />
  </g>
  <g
     inkscape:groupmode="layer"
     id="layer2"
     inkscape:label="botao">
    <path
       id="path2186"
       style="fill:#b79906;fill-opacity:1;stroke:#000000;stroke-width:0.722672"
       d="m 120.22234,365.93934 a 15.810485,12.718502 0 0 0 -15.81081,12.71856 15.810485,12.718502 0 0 0 15.81081,12.71856 15.810485,12.718502 0 0 0 0.47216,-0.0143 v 0.0413 h 86.36658 a 15.810485,12.718502 0 0 0 1.27718,0.0441 15.810485,12.718502 0 0 0 15.8104,-12.71856 15.810485,12.718502 0 0 0 -15.16077,-12.70675 v -10e-4 h -0.0321 a 15.810485,12.718502 0 0 0 -0.61751,-0.0108 15.810485,12.718502 0 0 0 -0.35574,0.0108 H 122.0034 a 15.810485,12.718502 0 0 0 -1.78107,-0.082 z" />
  </g>
  <g
     inkscape:groupmode="layer"
     id="layer3"
     inkscape:label="letras">
    <text
       xml:space="preserve"
       style="font-style:normal;font-weight:normal;font-size:10.5833px;line-height:1.25;font-family:sans-serif;fill:#444444;fill-opacity:1;stroke:none;stroke-width:0.264583"
       x="85.742752"
       y="256.67328"
       id="text4588"><tspan
         sodipodi:role="line"
         style="stroke-width:0.264583;fill:#444444;fill-opacity:1"
         x="85.742752"
         y="256.67328"
         id="tspan6254">First Name</tspan></text>
    <text
       xml:space="preserve"
       style="font-style:normal;font-weight:normal;font-size:10.5833px;line-height:1.25;font-family:sans-serif;fill:#444444;fill-opacity:1;stroke:none;stroke-width:0.264583"
       x="192.30125"
       y="256.26587"
       id="text7448"><tspan
         sodipodi:role="line"
         id="tspan7446"
         style="stroke-width:0.264583;fill:#444444;fill-opacity:1"
         x="192.30125"
         y="256.26587">Last Name</tspan></text>
    <text
       xml:space="preserve"
       style="font-style:normal;font-weight:normal;font-size:17.7639px;line-height:1.25;font-family:sans-serif;fill:#9998ad;fill-opacity:0.490196;stroke:none;stroke-width:0.444099"
       x="125.45167"
       y="289.7973"
       id="text10584"
       transform="scale(0.97238088,1.0284036)"><tspan
         sodipodi:role="line"
         id="tspan10582"
         style="fill:#444444;fill-opacity:1;stroke-width:0.444099"
         x="125.45167"
         y="289.7973">Username</tspan></text>
    <text
       xml:space="preserve"
       style="font-style:normal;font-weight:normal;font-size:18.0678px;line-height:1.25;font-family:sans-serif;fill:#444444;fill-opacity:1;stroke:none;stroke-width:0.451695"
       x="139.47278"
       y="305.37473"
       id="text14220"
       transform="scale(0.90126642,1.1095498)"><tspan
         sodipodi:role="line"
         style="fill:#444444;fill-opacity:1;stroke-width:0.451695"
         x="139.47278"
         y="305.37473"
         id="tspan15968">Password</tspan></text>
    <text
       xml:space="preserve"
       style="font-style:normal;font-weight:normal;font-size:10.5833px;line-height:1.25;font-family:sans-serif;fill:#000000;fill-opacity:1;stroke:none;stroke-width:0.264583"
       x="127.92923"
       y="382.15802"
       id="text19232"><tspan
         sodipodi:role="line"
         id="tspan19230"
         style="stroke-width:0.264583"
         x="127.92923"
         y="382.15802">Give Me MY $$</tspan></text>
  </g>
</svg>
