<?xml version="1.0" encoding="UTF-8" standalone="no"?>
<!-- Created with Inkscape (http://www.inkscape.org/) -->

<svg
   width="210mm"
   height="297mm"
   viewBox="0 0 210 297"
   version="1.1"
   id="svg5"
   sodipodi:docname="logoCC.svg"
   inkscape:version="1.1.1 (3bf5ae0d25, 2021-09-20)"
   xmlns:inkscape="http://www.inkscape.org/namespaces/inkscape"
   xmlns:sodipodi="http://sodipodi.sourceforge.net/DTD/sodipodi-0.dtd"
   xmlns="http://www.w3.org/2000/svg"
   xmlns:svg="http://www.w3.org/2000/svg">
  <sodipodi:namedview
     id="namedview7"
     pagecolor="#ffffff"
     bordercolor="#999999"
     borderopacity="1"
     inkscape:pageshadow="0"
     inkscape:pageopacity="0"
     inkscape:pagecheckerboard="0"
     inkscape:document-units="mm"
     showgrid="false"
     showguides="true"
     inkscape:guide-bbox="true"
     inkscape:zoom="1.0441476"
     inkscape:cx="338.07481"
     inkscape:cy="429.53697"
     inkscape:window-width="1920"
     inkscape:window-height="991"
     inkscape:window-x="-9"
     inkscape:window-y="-9"
     inkscape:window-maximized="1"
     inkscape:current-layer="layer1">
    <sodipodi:guide
       position="107.81224,160.68568"
       orientation="0,-1"
       id="guide824" />
    <sodipodi:guide
       position="107.81224,160.68568"
       orientation="1,0"
       id="guide826" />
    <sodipodi:guide
       position="107.81224,160.68568"
       orientation="0.70710678,-0.70710678"
       id="guide2681" />
    <sodipodi:guide
       position="107.81224,160.68568"
       orientation="-0.70710678,-0.70710678"
       id="guide2683" />
    <sodipodi:guide
       position="82.886059,171.27199"
       orientation="1,0"
       id="guide3170" />
    <sodipodi:guide
       position="92.39894,160.68568"
       orientation="1,0"
       id="guide3172" />
    <sodipodi:guide
       position="118.1008,170.97462"
       orientation="1,0"
       id="guide3174" />
    <sodipodi:guide
       position="127.47666,89.435122"
       orientation="1,0"
       id="guide3176" />
    <sodipodi:guide
       position="107.57379,201.79496"
       orientation="0,-1"
       id="guide3211" />
    <sodipodi:guide
       position="107.81224,211.6634"
       orientation="0,-1"
       id="guide3293" />
    <sodipodi:guide
       position="107.57379,118.80468"
       orientation="0,-1"
       id="guide5988" />
    <sodipodi:guide
       position="107.81224,112.10022"
       orientation="0,-1"
       id="guide5990" />
    <sodipodi:guide
       position="169.96888,218.66044"
       orientation="-1,0"
       id="guide6903"
       inkscape:label=""
       inkscape:locked="false"
       inkscape:color="rgb(0,0,255)" />
  </sodipodi:namedview>
  <defs
     id="defs2" />
  <g
     inkscape:label="Layer 1"
     inkscape:groupmode="layer"
     id="layer1">
    <g
       id="g8291"
       inkscape:export-filename="D:\IPCA\2o Ano\Projeto final\Crypto-Challenge---Documentacao\Icons\g8291.png"
       inkscape:export-xdpi="96"
       inkscape:export-ydpi="96">
      <path
         id="path850"
         style="fill:#b79906;stroke:#000000;stroke-width:3.77952761;fill-opacity:1;stroke-miterlimit:4;stroke-dasharray:none"
         d="M 406.57812 359.83008 A 156.83205 156.83205 0 0 0 249.74609 516.66211 A 156.83205 156.83205 0 0 0 406.57812 673.49414 A 156.83205 156.83205 0 0 0 518.53516 626.26172 L 490.52539 598.25 A 117.08098 117.08098 0 0 1 406.57812 633.74414 A 117.08098 117.08098 0 0 1 289.49805 516.66211 A 117.08098 117.08098 0 0 1 406.57812 399.58203 A 117.08098 117.08098 0 0 1 489.07227 433.60938 L 517.07812 405.60547 A 156.83205 156.83205 0 0 0 406.57812 359.83008 z M 406.57812 426.01172 A 90.650615 90.650615 0 0 0 315.92773 516.66211 A 90.650615 90.650615 0 0 0 406.57812 607.3125 A 90.650615 90.650615 0 0 0 471.74023 579.46484 L 447.81836 555.54297 A 56.683469 56.683472 0 0 1 406.57812 573.3457 A 56.683469 56.683472 0 0 1 349.89453 516.66211 A 56.683469 56.683472 0 0 1 406.57812 459.97852 A 56.683469 56.683472 0 0 1 446.36523 476.31641 L 470.28125 452.40039 A 90.650615 90.650615 0 0 0 406.57812 426.01172 z "
         transform="scale(0.26458333)" />
      <path
         style="fill:none;stroke:#000000;stroke-width:0.264583px;stroke-linecap:butt;stroke-linejoin:miter;stroke-opacity:1"
         d="m 107.81224,136.31432 c 0.0719,0.19244 0.0232,0.64923 0.21569,0.57733 0.19245,-0.0719 -0.14379,-0.38489 -0.21569,-0.57733"
         id="path2718" />
      <path
         style="fill:none;stroke:#000000;stroke-width:1;stroke-linecap:butt;stroke-linejoin:miter;stroke-opacity:1;stroke-miterlimit:4;stroke-dasharray:none"
         d="M 82.982487,103.58098 V 85.336599"
         id="path3328" />
      <path
         style="fill:none;stroke:#000000;stroke-width:0.264583px;stroke-linecap:butt;stroke-linejoin:miter;stroke-opacity:1"
         d="m 82.982487,170.22615 v 14.67363"
         id="path6025" />
      <path
         style="fill:none;stroke:#000000;stroke-width:0.264583px;stroke-linecap:butt;stroke-linejoin:miter;stroke-opacity:1"
         d="m 82.982487,184.89978 h 9.416452 l 10e-7,-9.48049"
         id="path6027" />
      <path
         style="fill:#b79906;fill-opacity:1;stroke:#000000;stroke-width:3.77952761;stroke-miterlimit:4;stroke-dasharray:none"
         d="m 314.26981,672.1415 v -26.12175 l 3.82386,2.55722 c 8.77702,5.86967 17.76536,10.69607 27.50042,14.7667 l 2.90991,1.21675 v 16.85141 16.85142 h -17.1171 -17.11709 z"
         id="path6070"
         transform="scale(0.26458333)" />
      <path
         style="fill:none;stroke:#000000;stroke-width:0.00072174;stroke-linecap:butt;stroke-linejoin:miter;stroke-miterlimit:4;stroke-dasharray:none;stroke-opacity:1"
         d="m 118.1008,176.92039 v 8.48177"
         id="path6938" />
      <path
         style="fill:none;stroke:#000000;stroke-width:0.00070004;stroke-linecap:butt;stroke-linejoin:miter;stroke-opacity:1;stroke-miterlimit:4;stroke-dasharray:none"
         d="m 118.1008,184.89978 h 9.37586 l 0,-11.71803"
         id="path6940" />
      <path
         style="fill:none;stroke:#000000;stroke-width:1;stroke-linecap:butt;stroke-linejoin:miter;stroke-opacity:1;stroke-miterlimit:4;stroke-dasharray:none"
         d="m 118.1008,96.519319 v -11.18272 l 9.37586,2e-6 0,14.931889"
         id="path7055" />
      <path
         style="fill:#b79906;fill-opacity:1;stroke:#000000;stroke-width:3.77952761;stroke-miterlimit:4;stroke-dasharray:none"
         d="m 448.88059,683.36103 0.0223,-13.3533 8.47531,-2.70718 c 4.66142,-1.48895 11.43269,-4.12447 15.04727,-5.85671 3.61459,-1.73224 6.74845,-3.14953 6.96415,-3.14953 0.2157,0 0.39218,8.6445 0.39218,19.21001 v 19.21001 h -15.46172 -15.46171 z"
         id="path7133"
         transform="scale(0.26458333)" />
      <path
         style="fill:none;stroke:#000000;stroke-width:1;stroke-linecap:butt;stroke-linejoin:miter;stroke-opacity:1;stroke-miterlimit:4;stroke-dasharray:none"
         d="M 92.398939,85.336599 V 98.062276"
         id="path7651" />
      <path
         style="fill:none;stroke:#000000;stroke-width:1.04524;stroke-linecap:butt;stroke-linejoin:miter;stroke-miterlimit:4;stroke-dasharray:none;stroke-opacity:1"
         d="M 92.88108,85.336599 H 82.488011"
         id="path7846" />
      <path
         style="fill:#b79906;fill-opacity:1;stroke:#000000;stroke-width:1.23375;stroke-miterlimit:4;stroke-dasharray:none"
         d="m 477.07706,374.3527 c -6.76925,-3.47378 -17.85531,-7.79661 -26.19599,-10.21471 l -2.36662,-0.68613 v -19.40874 -19.40875 h 15.66863 15.66863 v 25.46152 c 0,14.00384 -0.11017,25.4543 -0.24482,25.44547 -0.13466,-0.009 -1.27308,-0.54373 -2.52983,-1.18866 z"
         id="path8119"
         transform="scale(0.26458333)" />
      <path
         style="fill:#b79906;fill-opacity:1;stroke:#000000;stroke-width:1.23375;stroke-miterlimit:4;stroke-dasharray:none"
         d="m 315.65755,355.47509 v -30.84072 h 15.83184 15.83185 v 22.29181 22.29181 l -3.01948,1.26131 c -7.44917,3.1117 -17.23656,8.35093 -24.48223,13.10546 l -4.16198,2.73104 z"
         id="path8158"
         transform="scale(0.26458333)" />
    </g>
  </g>
</svg>
